<?xml version="1.0" encoding="UTF-8" standalone="no"?>
<!DOCTYPE svg PUBLIC "-//W3C//DTD SVG 1.1//EN" "http://www.w3.org/Graphics/SVG/1.1/DTD/svg11.dtd">
<svg width="100%" height="100%" viewBox="0 0 1080 1080" version="1.1" xmlns="http://www.w3.org/2000/svg" xmlns:xlink="http://www.w3.org/1999/xlink" xml:space="preserve" xmlns:serif="http://www.serif.com/" style="fill-rule:evenodd;clip-rule:evenodd;stroke-linejoin:round;stroke-miterlimit:2;">
    <g transform="matrix(1.27121,0,0,1.27121,-179.113,-177.161)">
        <path d="M816.197,313.012C912.455,313.013 990.487,391.045 990.488,487.303L990.487,736.21C990.487,832.468 912.455,910.5 816.197,910.5L315.19,910.5C218.932,910.5 140.9,832.468 140.9,736.21L140.9,487.303C140.9,391.045 218.932,313.013 315.19,313.013L816.197,313.012Z" style="fill:rgb(235,235,235);"/>
    </g>
    <g transform="matrix(0.285936,0,0,0.150729,95.3628,52.5487)">
        <path d="M833.012,313.013C919.983,313.013 990.487,446.761 990.488,611.747C990.487,611.753 990.487,611.759 990.488,611.765C990.487,776.752 919.983,910.5 833.012,910.5C680.584,910.5 450.803,910.5 298.376,910.5C211.404,910.5 140.9,776.752 140.9,611.765C140.9,611.759 140.9,611.753 140.9,611.747C140.9,446.761 211.404,313.013 298.376,313.013C450.803,313.013 680.584,313.013 833.012,313.013Z" style="fill:rgb(148,148,148);"/>
    </g>
    <g transform="matrix(1.27121,0,0,1.27121,-108.898,-216.637)">
        <circle cx="638.308" cy="642.81" r="177.057" style="fill:rgb(50,50,50);"/>
    </g>
    <g transform="matrix(0.331099,0,0,0.331099,-37.7942,178.198)">
        <circle cx="638.308" cy="642.81" r="177.057" style="fill:rgb(148,148,148);"/>
    </g>
</svg>
